<?xml version="1.0" encoding="UTF-8"?>
<svg xmlns="http://www.w3.org/2000/svg" xmlns:xlink="http://www.w3.org/1999/xlink" width="378pt" height="77pt" viewBox="0 0 378 77" version="1.1">
<g id="surface1">
<path style=" stroke:none;fill-rule:nonzero;fill:rgb(65.490196%,78.039216%,19.607843%);fill-opacity:1;" d="M 179.703125 39.597656 C 179.703125 41.785156 179.292969 43.835938 178.464844 45.742188 C 177.636719 47.660156 176.527344 49.320312 175.109375 50.726562 C 173.699219 52.136719 172.03125 53.253906 170.125 54.085938 C 168.207031 54.914062 166.15625 55.324219 163.980469 55.324219 L 134.597656 55.324219 C 132.421875 55.324219 130.382812 54.914062 128.496094 54.085938 C 126.605469 53.253906 124.957031 52.148438 123.550781 50.726562 C 122.140625 49.320312 121.023438 47.652344 120.191406 45.742188 C 119.363281 43.824219 118.953125 41.777344 118.953125 39.597656 L 118.953125 15.890625 C 118.953125 13.714844 119.363281 11.675781 120.191406 9.789062 C 121.023438 7.898438 122.128906 6.25 123.550781 4.84375 C 124.957031 3.433594 126.605469 2.316406 128.496094 1.484375 C 130.382812 0.65625 132.421875 0.246094 134.597656 0.246094 L 163.980469 0.246094 C 166.15625 0.246094 168.214844 0.667969 170.125 1.496094 C 172.042969 2.324219 173.699219 3.453125 175.109375 4.871094 C 176.515625 6.292969 177.636719 7.949219 178.464844 9.859375 C 179.292969 11.757812 179.703125 13.792969 179.703125 15.980469 L 179.703125 22.527344 L 168.523438 22.527344 L 168.523438 15.980469 C 168.523438 12.894531 167.007812 11.355469 163.96875 11.355469 L 134.589844 11.355469 C 131.5 11.355469 129.960938 12.894531 129.960938 15.972656 L 129.960938 39.628906 C 129.960938 42.605469 131.5 44.085938 134.589844 44.085938 L 163.96875 44.085938 C 167.007812 44.085938 168.523438 42.597656 168.523438 39.609375 L 168.363281 32.824219 L 179.542969 32.824219 Z M 179.703125 39.597656 "/>
<path style=" stroke:none;fill-rule:nonzero;fill:rgb(65.490196%,78.039216%,19.607843%);fill-opacity:1;" d="M 237.496094 1.484375 C 239.414062 2.316406 241.09375 3.433594 242.523438 4.84375 C 243.960938 6.25 245.089844 7.898438 245.917969 9.789062 C 246.738281 11.675781 247.15625 13.714844 247.15625 15.890625 L 247.15625 39.597656 C 247.15625 41.785156 246.75 43.835938 245.917969 45.742188 C 245.089844 47.660156 243.960938 49.339844 242.523438 50.769531 C 241.085938 52.207031 239.40625 53.335938 237.496094 54.164062 C 235.578125 54.992188 233.5625 55.402344 231.433594 55.402344 L 219.734375 55.402344 C 216.039062 55.402344 212.371094 55.394531 208.753906 55.363281 C 205.140625 55.332031 201.460938 55.324219 197.738281 55.324219 L 186.078125 55.324219 L 186.078125 44.234375 L 231.433594 44.234375 C 234.460938 44.234375 235.96875 42.714844 235.96875 39.667969 L 235.96875 15.902344 C 235.96875 12.863281 234.449219 11.335938 231.433594 11.335938 L 197.257812 11.257812 L 197.257812 41.355469 L 186.078125 41.355469 L 186.078125 0.167969 L 231.421875 0.246094 C 233.5625 0.246094 235.578125 0.65625 237.496094 1.484375 "/>
<path style=" stroke:none;fill-rule:nonzero;fill:rgb(65.490196%,78.039216%,19.607843%);fill-opacity:1;" d="M 284.042969 47.75 L 262.5625 18.53125 L 262.5625 55.332031 L 251.382812 55.332031 L 251.382812 0.246094 L 263.28125 0.246094 L 284.042969 28.910156 L 304.871094 0.246094 L 316.769531 0.246094 L 316.769531 55.332031 L 305.589844 55.332031 L 305.589844 18.449219 Z M 284.042969 47.75 "/>
<path style=" stroke:none;fill-rule:nonzero;fill:rgb(65.490196%,78.039216%,19.607843%);fill-opacity:1;" d="M 368.417969 1.40625 C 370.335938 2.234375 371.996094 3.355469 373.40625 4.761719 C 374.8125 6.171875 375.933594 7.839844 376.761719 9.75 C 377.582031 11.667969 378 13.714844 378 15.890625 L 378 29.777344 C 378 31.964844 377.589844 34.015625 376.761719 35.921875 C 375.941406 37.839844 374.824219 39.5 373.414062 40.90625 C 372.007812 42.316406 370.347656 43.433594 368.429688 44.265625 C 366.511719 45.09375 364.472656 45.503906 362.296875 45.503906 L 332.015625 45.503906 L 332.015625 55.324219 L 320.835938 55.324219 L 320.835938 34.335938 L 362.265625 34.414062 C 365.300781 34.414062 366.820312 32.894531 366.820312 29.847656 L 366.820312 15.914062 C 366.820312 12.816406 365.300781 11.265625 362.285156 11.265625 L 332.015625 11.265625 L 332.015625 31.707031 L 320.835938 31.707031 L 320.835938 0.167969 L 362.265625 0.167969 C 364.453125 0.167969 366.5 0.578125 368.417969 1.40625 "/>
<path style=" stroke:none;fill-rule:nonzero;fill:rgb(14.117647%,20%,40%);fill-opacity:1;" d="M 177.445312 39.597656 C 177.445312 41.785156 177.035156 43.835938 176.207031 45.742188 C 175.378906 47.660156 174.257812 49.320312 172.851562 50.726562 C 171.441406 52.136719 169.773438 53.253906 167.867188 54.085938 C 165.949219 54.914062 163.898438 55.324219 161.722656 55.324219 L 132.339844 55.324219 C 130.164062 55.324219 128.125 54.914062 126.238281 54.085938 C 124.347656 53.253906 122.699219 52.148438 121.292969 50.726562 C 119.882812 49.320312 118.765625 47.652344 117.933594 45.742188 C 117.105469 43.824219 116.695312 41.777344 116.695312 39.597656 L 116.695312 15.890625 C 116.695312 13.714844 117.105469 11.675781 117.933594 9.789062 C 118.765625 7.898438 119.871094 6.25 121.292969 4.84375 C 122.699219 3.433594 124.347656 2.316406 126.238281 1.484375 C 128.125 0.65625 130.164062 0.246094 132.339844 0.246094 L 161.722656 0.246094 C 163.898438 0.246094 165.957031 0.667969 167.867188 1.496094 C 169.785156 2.324219 171.441406 3.453125 172.851562 4.871094 C 174.257812 6.292969 175.378906 7.949219 176.207031 9.859375 C 177.035156 11.757812 177.445312 13.792969 177.445312 15.980469 L 177.445312 22.527344 L 166.265625 22.527344 L 166.265625 15.980469 C 166.265625 12.894531 164.75 11.355469 161.710938 11.355469 L 132.332031 11.355469 C 129.242188 11.355469 127.703125 12.894531 127.703125 15.972656 L 127.703125 39.628906 C 127.703125 42.605469 129.242188 44.085938 132.332031 44.085938 L 161.710938 44.085938 C 164.75 44.085938 166.265625 42.597656 166.265625 39.609375 L 166.105469 32.824219 L 177.285156 32.824219 Z M 177.445312 39.597656 "/>
<path style=" stroke:none;fill-rule:nonzero;fill:rgb(14.117647%,20%,40%);fill-opacity:1;" d="M 235.238281 1.484375 C 237.15625 2.316406 238.835938 3.433594 240.265625 4.84375 C 241.703125 6.25 242.832031 7.898438 243.660156 9.789062 C 244.492188 11.675781 244.898438 13.714844 244.898438 15.890625 L 244.898438 39.597656 C 244.898438 41.785156 244.492188 43.835938 243.660156 45.742188 C 242.832031 47.660156 241.703125 49.339844 240.265625 50.769531 C 238.828125 52.207031 237.148438 53.335938 235.238281 54.164062 C 233.320312 54.992188 231.304688 55.402344 229.175781 55.402344 L 217.476562 55.402344 C 213.78125 55.402344 210.113281 55.394531 206.496094 55.363281 C 202.882812 55.332031 199.203125 55.324219 195.480469 55.324219 L 183.820312 55.324219 L 183.820312 44.234375 L 229.175781 44.234375 C 232.203125 44.234375 233.710938 42.714844 233.710938 39.667969 L 233.710938 15.902344 C 233.710938 12.863281 232.191406 11.335938 229.175781 11.335938 L 195 11.257812 L 195 41.355469 L 183.820312 41.355469 L 183.820312 0.167969 L 229.164062 0.246094 C 231.304688 0.246094 233.332031 0.65625 235.238281 1.484375 "/>
<path style=" stroke:none;fill-rule:nonzero;fill:rgb(14.117647%,20%,40%);fill-opacity:1;" d="M 281.785156 47.75 L 260.316406 18.53125 L 260.316406 55.332031 L 249.136719 55.332031 L 249.136719 0.246094 L 261.023438 0.246094 L 281.785156 28.910156 L 302.625 0.246094 L 314.511719 0.246094 L 314.511719 55.332031 L 303.34375 55.332031 L 303.34375 18.449219 Z M 281.785156 47.75 "/>
<path style=" stroke:none;fill-rule:nonzero;fill:rgb(14.117647%,20%,40%);fill-opacity:1;" d="M 366.160156 1.40625 C 368.078125 2.234375 369.738281 3.355469 371.148438 4.761719 C 372.554688 6.171875 373.675781 7.839844 374.503906 9.75 C 375.332031 11.667969 375.742188 13.714844 375.742188 15.890625 L 375.742188 29.777344 C 375.742188 31.964844 375.332031 34.015625 374.503906 35.921875 C 373.683594 37.839844 372.566406 39.5 371.15625 40.90625 C 369.75 42.316406 368.089844 43.433594 366.171875 44.265625 C 364.253906 45.09375 362.214844 45.503906 360.039062 45.503906 L 329.757812 45.503906 L 329.757812 55.324219 L 318.589844 55.324219 L 318.589844 34.335938 L 360.019531 34.414062 C 363.054688 34.414062 364.574219 32.894531 364.574219 29.847656 L 364.574219 15.914062 C 364.574219 12.816406 363.054688 11.265625 360.039062 11.265625 L 329.765625 11.265625 L 329.765625 31.707031 L 318.589844 31.707031 L 318.589844 0.167969 L 360.019531 0.167969 C 362.195312 0.167969 364.253906 0.578125 366.160156 1.40625 "/>
<path style=" stroke:none;fill-rule:nonzero;fill:rgb(59.607843%,8.627451%,22.352941%);fill-opacity:1;" d="M 123.167969 64.292969 C 123.007812 63.984375 122.75 63.824219 122.390625 63.824219 C 122.109375 63.824219 121.878906 63.90625 121.722656 64.054688 C 121.550781 64.214844 121.421875 64.484375 121.339844 64.882812 C 121.25 65.285156 121.203125 65.8125 121.171875 66.484375 C 121.140625 67.152344 121.132812 68 121.132812 69.019531 C 121.132812 70.039062 121.140625 70.886719 121.171875 71.558594 C 121.203125 72.226562 121.25 72.765625 121.339844 73.15625 C 121.429688 73.554688 121.550781 73.824219 121.722656 73.984375 C 121.890625 74.144531 122.109375 74.214844 122.390625 74.214844 C 122.621094 74.214844 122.808594 74.15625 122.949219 74.035156 C 123.097656 73.914062 123.210938 73.714844 123.289062 73.425781 C 123.371094 73.144531 123.429688 72.765625 123.460938 72.285156 C 123.488281 71.816406 123.507812 71.21875 123.507812 70.5 L 127.125 70.5 L 127.125 71.628906 C 127.125 72.6875 126.996094 73.554688 126.726562 74.234375 C 126.457031 74.914062 126.105469 75.445312 125.65625 75.832031 C 125.21875 76.222656 124.707031 76.484375 124.136719 76.621094 C 123.570312 76.753906 122.980469 76.824219 122.378906 76.824219 C 121.332031 76.824219 120.480469 76.683594 119.8125 76.421875 C 119.144531 76.152344 118.625 75.703125 118.246094 75.074219 C 117.863281 74.445312 117.613281 73.636719 117.476562 72.636719 C 117.335938 71.636719 117.265625 70.4375 117.265625 69.019531 C 117.265625 67.582031 117.34375 66.351562 117.515625 65.355469 C 117.683594 64.355469 117.964844 63.535156 118.363281 62.917969 C 118.765625 62.296875 119.292969 61.847656 119.953125 61.566406 C 120.613281 61.289062 121.421875 61.15625 122.378906 61.15625 C 123.21875 61.15625 123.9375 61.269531 124.527344 61.496094 C 125.117188 61.726562 125.597656 62.046875 125.964844 62.464844 C 126.335938 62.886719 126.605469 63.386719 126.765625 63.976562 C 126.9375 64.566406 127.015625 65.222656 127.015625 65.953125 L 127.015625 66.902344 L 123.398438 66.902344 L 123.398438 66.054688 C 123.410156 65.195312 123.328125 64.605469 123.167969 64.292969 "/>
<path style=" stroke:none;fill-rule:nonzero;fill:rgb(59.607843%,8.627451%,22.352941%);fill-opacity:1;" d="M 135.515625 61.457031 L 139.015625 76.601562 L 135.039062 76.601562 L 134.65625 73.957031 L 131.691406 73.957031 L 131.3125 76.601562 L 127.394531 76.601562 L 130.832031 61.457031 Z M 133.148438 64.554688 L 132.121094 70.976562 L 134.207031 70.976562 L 133.191406 64.554688 Z M 133.148438 64.554688 "/>
<path style=" stroke:none;fill-rule:nonzero;fill:rgb(59.607843%,8.627451%,22.352941%);fill-opacity:1;" d="M 139.492188 61.457031 L 143.230469 61.457031 L 143.230469 76.601562 L 139.492188 76.601562 Z M 139.492188 61.457031 "/>
<path style=" stroke:none;fill-rule:nonzero;fill:rgb(59.607843%,8.627451%,22.352941%);fill-opacity:1;" d="M 150.433594 65.464844 C 150.433594 65.015625 150.34375 64.625 150.171875 64.304688 C 150.003906 63.984375 149.734375 63.824219 149.375 63.824219 C 148.972656 63.824219 148.675781 63.964844 148.496094 64.234375 C 148.316406 64.503906 148.214844 64.8125 148.214844 65.152344 C 148.214844 65.652344 148.363281 66.042969 148.664062 66.332031 C 148.964844 66.621094 149.34375 66.871094 149.804688 67.082031 C 150.261719 67.292969 150.742188 67.511719 151.273438 67.730469 C 151.792969 67.953125 152.28125 68.242188 152.742188 68.589844 C 153.199219 68.941406 153.570312 69.410156 153.878906 69.980469 C 154.179688 70.546875 154.328125 71.296875 154.328125 72.21875 C 154.328125 73.824219 153.890625 74.996094 153.019531 75.722656 C 152.152344 76.453125 150.890625 76.8125 149.242188 76.8125 C 148.464844 76.8125 147.785156 76.742188 147.1875 76.613281 C 146.585938 76.484375 146.085938 76.242188 145.675781 75.914062 C 145.269531 75.582031 144.957031 75.144531 144.75 74.605469 C 144.539062 74.066406 144.429688 73.40625 144.429688 72.605469 L 144.429688 72.097656 L 148.046875 72.097656 L 148.046875 72.457031 C 148.046875 73.105469 148.15625 73.566406 148.382812 73.824219 C 148.613281 74.085938 148.902344 74.214844 149.265625 74.214844 C 149.652344 74.214844 149.953125 74.074219 150.152344 73.785156 C 150.363281 73.503906 150.460938 73.15625 150.460938 72.746094 C 150.460938 72.246094 150.324219 71.855469 150.03125 71.566406 C 149.742188 71.277344 149.382812 71.027344 148.953125 70.828125 C 148.515625 70.628906 148.046875 70.417969 147.535156 70.199219 C 147.027344 69.988281 146.554688 69.710938 146.117188 69.371094 C 145.675781 69.03125 145.316406 68.582031 145.039062 68.03125 C 144.75 67.480469 144.609375 66.761719 144.609375 65.863281 C 144.609375 64.324219 145 63.144531 145.777344 62.347656 C 146.554688 61.539062 147.734375 61.136719 149.3125 61.136719 C 150.941406 61.136719 152.132812 61.507812 152.859375 62.246094 C 153.589844 62.984375 153.960938 64.175781 153.960938 65.804688 L 150.460938 65.804688 L 150.460938 65.464844 Z M 150.433594 65.464844 "/>
<path style=" stroke:none;fill-rule:nonzero;fill:rgb(59.607843%,8.627451%,22.352941%);fill-opacity:1;" d="M 161.210938 65.464844 C 161.210938 65.015625 161.121094 64.625 160.953125 64.304688 C 160.78125 63.984375 160.511719 63.824219 160.152344 63.824219 C 159.753906 63.824219 159.453125 63.964844 159.273438 64.234375 C 159.085938 64.515625 158.996094 64.8125 158.996094 65.152344 C 158.996094 65.652344 159.144531 66.042969 159.445312 66.332031 C 159.742188 66.621094 160.125 66.871094 160.582031 67.082031 C 161.03125 67.292969 161.523438 67.511719 162.050781 67.730469 C 162.570312 67.953125 163.058594 68.242188 163.519531 68.589844 C 163.96875 68.941406 164.347656 69.410156 164.660156 69.980469 C 164.957031 70.546875 165.109375 71.296875 165.109375 72.21875 C 165.109375 73.824219 164.667969 74.996094 163.800781 75.722656 C 162.929688 76.453125 161.671875 76.8125 160.023438 76.8125 C 159.242188 76.8125 158.566406 76.742188 157.964844 76.613281 C 157.367188 76.484375 156.867188 76.242188 156.457031 75.914062 C 156.046875 75.582031 155.738281 75.144531 155.527344 74.605469 C 155.316406 74.066406 155.207031 73.40625 155.207031 72.605469 L 155.207031 72.097656 L 158.824219 72.097656 L 158.824219 72.457031 C 158.824219 73.105469 158.933594 73.566406 159.164062 73.824219 C 159.394531 74.085938 159.683594 74.214844 160.042969 74.214844 C 160.433594 74.214844 160.734375 74.074219 160.933594 73.785156 C 161.140625 73.503906 161.242188 73.15625 161.242188 72.746094 C 161.242188 72.246094 161.101562 71.855469 160.8125 71.566406 C 160.523438 71.277344 160.164062 71.027344 159.722656 70.828125 C 159.285156 70.628906 158.816406 70.417969 158.304688 70.199219 C 157.796875 69.988281 157.324219 69.710938 156.886719 69.371094 C 156.445312 69.03125 156.085938 68.582031 155.796875 68.03125 C 155.507812 67.480469 155.367188 66.761719 155.367188 65.863281 C 155.367188 64.324219 155.757812 63.144531 156.535156 62.347656 C 157.316406 61.539062 158.496094 61.136719 160.074219 61.136719 C 161.703125 61.136719 162.890625 61.507812 163.621094 62.246094 C 164.347656 62.984375 164.707031 64.175781 164.707031 65.804688 L 161.210938 65.804688 Z M 161.210938 65.464844 "/>
<path style=" stroke:none;fill-rule:nonzero;fill:rgb(59.607843%,8.627451%,22.352941%);fill-opacity:1;" d="M 174.910156 61.457031 L 174.910156 64.675781 L 170.144531 64.675781 L 170.144531 67.261719 L 174.609375 67.261719 L 174.609375 70.359375 L 170.144531 70.359375 L 170.144531 73.375 L 175.089844 73.375 L 175.089844 76.601562 L 166.417969 76.601562 L 166.417969 61.457031 Z M 174.910156 61.457031 "/>
<path style=" stroke:none;fill-rule:nonzero;fill:rgb(59.607843%,8.627451%,22.352941%);fill-opacity:1;" d="M 187.085938 61.457031 C 188.175781 61.457031 189.015625 61.667969 189.613281 62.085938 C 190.214844 62.507812 190.664062 63.066406 190.972656 63.765625 C 191.273438 64.464844 191.460938 65.273438 191.523438 66.183594 C 191.59375 67.09375 191.621094 68.050781 191.621094 69.039062 C 191.621094 70.027344 191.59375 70.976562 191.523438 71.898438 C 191.453125 72.804688 191.273438 73.617188 190.972656 74.316406 C 190.671875 75.015625 190.222656 75.574219 189.613281 75.992188 C 189.015625 76.414062 188.164062 76.621094 187.085938 76.621094 L 181.664062 76.621094 L 181.664062 61.457031 Z M 186.148438 73.753906 C 186.507812 73.753906 186.796875 73.707031 187.007812 73.59375 C 187.214844 73.484375 187.386719 73.265625 187.496094 72.925781 C 187.605469 72.585938 187.6875 72.105469 187.714844 71.488281 C 187.746094 70.867188 187.765625 70.050781 187.765625 69.03125 C 187.765625 68.011719 187.746094 67.191406 187.714844 66.574219 C 187.6875 65.953125 187.605469 65.472656 187.496094 65.132812 C 187.386719 64.792969 187.214844 64.574219 187.007812 64.464844 C 186.796875 64.355469 186.507812 64.304688 186.148438 64.304688 L 185.410156 64.304688 L 185.410156 73.765625 L 186.148438 73.765625 Z M 186.148438 73.753906 "/>
<path style=" stroke:none;fill-rule:nonzero;fill:rgb(59.607843%,8.627451%,22.352941%);fill-opacity:1;" d="M 201.683594 61.457031 L 201.683594 64.675781 L 196.925781 64.675781 L 196.925781 67.261719 L 201.382812 67.261719 L 201.382812 70.359375 L 196.925781 70.359375 L 196.925781 73.375 L 201.863281 73.375 L 201.863281 76.601562 L 193.191406 76.601562 L 193.191406 61.457031 Z M 201.683594 61.457031 "/>
<path style=" stroke:none;fill-rule:nonzero;fill:rgb(59.607843%,8.627451%,22.352941%);fill-opacity:1;" d="M 208.816406 65.464844 C 208.816406 65.015625 208.726562 64.625 208.554688 64.304688 C 208.386719 63.984375 208.117188 63.824219 207.757812 63.824219 C 207.355469 63.824219 207.058594 63.964844 206.878906 64.234375 C 206.6875 64.515625 206.597656 64.8125 206.597656 65.152344 C 206.597656 65.652344 206.746094 66.042969 207.046875 66.332031 C 207.347656 66.621094 207.726562 66.871094 208.1875 67.082031 C 208.644531 67.292969 209.136719 67.511719 209.65625 67.730469 C 210.175781 67.953125 210.664062 68.242188 211.125 68.589844 C 211.574219 68.941406 211.953125 69.410156 212.261719 69.980469 C 212.5625 70.546875 212.710938 71.296875 212.710938 72.21875 C 212.710938 73.824219 212.273438 74.996094 211.402344 75.722656 C 210.535156 76.453125 209.273438 76.8125 207.625 76.8125 C 206.847656 76.8125 206.167969 76.742188 205.570312 76.613281 C 204.96875 76.484375 204.46875 76.242188 204.058594 75.914062 C 203.652344 75.582031 203.339844 75.144531 203.132812 74.605469 C 202.921875 74.066406 202.8125 73.40625 202.8125 72.605469 L 202.8125 72.097656 L 206.429688 72.097656 L 206.429688 72.457031 C 206.429688 73.105469 206.539062 73.566406 206.769531 73.824219 C 206.996094 74.085938 207.285156 74.214844 207.648438 74.214844 C 208.035156 74.214844 208.335938 74.074219 208.535156 73.785156 C 208.746094 73.503906 208.84375 73.15625 208.84375 72.746094 C 208.84375 72.246094 208.707031 71.855469 208.414062 71.566406 C 208.125 71.277344 207.765625 71.027344 207.335938 70.828125 C 206.898438 70.628906 206.429688 70.417969 205.917969 70.199219 C 205.410156 69.988281 204.9375 69.710938 204.5 69.371094 C 204.058594 69.03125 203.699219 68.582031 203.421875 68.03125 C 203.132812 67.480469 202.992188 66.761719 202.992188 65.863281 C 202.992188 64.324219 203.382812 63.144531 204.160156 62.347656 C 204.9375 61.539062 206.117188 61.136719 207.695312 61.136719 C 209.324219 61.136719 210.515625 61.507812 211.242188 62.246094 C 211.972656 62.984375 212.332031 64.175781 212.332031 65.804688 L 208.835938 65.804688 L 208.835938 65.464844 Z M 208.816406 65.464844 "/>
<path style=" stroke:none;fill-rule:nonzero;fill:rgb(59.607843%,8.627451%,22.352941%);fill-opacity:1;" d="M 224.429688 61.457031 L 225.9375 70.429688 L 225.980469 70.429688 L 227.488281 61.457031 L 232.820312 61.457031 L 232.820312 76.601562 L 229.324219 76.601562 L 229.324219 65.3125 L 229.285156 65.3125 L 227.296875 76.601562 L 224.609375 76.601562 L 222.621094 65.3125 L 222.582031 65.3125 L 222.582031 76.601562 L 219.09375 76.601562 L 219.09375 61.457031 Z M 224.429688 61.457031 "/>
<path style=" stroke:none;fill-rule:nonzero;fill:rgb(59.607843%,8.627451%,22.352941%);fill-opacity:1;" d="M 241.492188 61.457031 L 244.988281 76.601562 L 241.015625 76.601562 L 240.632812 73.957031 L 237.667969 73.957031 L 237.289062 76.601562 L 233.371094 76.601562 L 236.808594 61.457031 Z M 239.125 64.554688 L 238.097656 70.976562 L 240.183594 70.976562 L 239.164062 64.554688 Z M 239.125 64.554688 "/>
<path style=" stroke:none;fill-rule:nonzero;fill:rgb(59.607843%,8.627451%,22.352941%);fill-opacity:1;" d="M 251.453125 61.457031 C 252.164062 61.457031 252.773438 61.558594 253.273438 61.757812 C 253.773438 61.957031 254.179688 62.238281 254.5 62.597656 C 254.8125 62.957031 255.039062 63.386719 255.179688 63.875 C 255.320312 64.375 255.390625 64.902344 255.390625 65.484375 C 255.390625 66.503906 255.199219 67.320312 254.8125 67.941406 C 254.421875 68.5625 253.800781 68.941406 252.941406 69.089844 L 252.941406 69.128906 C 253.839844 69.210938 254.449219 69.550781 254.789062 70.128906 C 255.121094 70.707031 255.289062 71.507812 255.289062 72.527344 L 255.289062 74.433594 C 255.289062 74.644531 255.300781 74.84375 255.308594 75.035156 C 255.320312 75.222656 255.339844 75.394531 255.371094 75.554688 C 255.398438 75.714844 255.429688 75.832031 255.46875 75.914062 C 255.519531 75.992188 255.578125 76.082031 255.628906 76.152344 C 255.679688 76.234375 255.769531 76.304688 255.890625 76.371094 L 255.890625 76.582031 L 251.914062 76.582031 C 251.824219 76.382812 251.753906 76.152344 251.703125 75.882812 C 251.652344 75.613281 251.625 75.34375 251.605469 75.074219 C 251.582031 74.804688 251.574219 74.542969 251.5625 74.304688 C 251.554688 74.054688 251.554688 73.855469 251.554688 73.695312 L 251.554688 72.695312 C 251.554688 72.265625 251.535156 71.917969 251.492188 71.636719 C 251.453125 71.359375 251.382812 71.128906 251.285156 70.96875 C 251.183594 70.808594 251.054688 70.6875 250.90625 70.628906 C 250.753906 70.570312 250.554688 70.539062 250.335938 70.539062 L 249.347656 70.539062 L 249.347656 76.601562 L 245.609375 76.601562 L 245.609375 61.457031 Z M 250.085938 67.859375 C 250.625 67.859375 251.015625 67.691406 251.273438 67.363281 C 251.523438 67.03125 251.652344 66.59375 251.652344 66.054688 C 251.652344 65.414062 251.535156 64.964844 251.285156 64.695312 C 251.035156 64.425781 250.632812 64.292969 250.066406 64.292969 L 249.347656 64.292969 L 249.347656 67.859375 Z M 250.085938 67.859375 "/>
<path style=" stroke:none;fill-rule:nonzero;fill:rgb(59.607843%,8.627451%,22.352941%);fill-opacity:1;" d="M 262.613281 64.292969 C 262.453125 63.984375 262.191406 63.824219 261.832031 63.824219 C 261.554688 63.824219 261.324219 63.90625 261.164062 64.054688 C 260.996094 64.214844 260.863281 64.484375 260.785156 64.882812 C 260.695312 65.285156 260.644531 65.8125 260.613281 66.484375 C 260.585938 67.152344 260.574219 68 260.574219 69.019531 C 260.574219 70.039062 260.585938 70.886719 260.613281 71.558594 C 260.644531 72.226562 260.695312 72.765625 260.785156 73.15625 C 260.875 73.554688 260.996094 73.824219 261.164062 73.984375 C 261.335938 74.144531 261.554688 74.214844 261.832031 74.214844 C 262.0625 74.214844 262.253906 74.15625 262.394531 74.035156 C 262.542969 73.914062 262.652344 73.714844 262.734375 73.425781 C 262.8125 73.144531 262.871094 72.765625 262.902344 72.285156 C 262.933594 71.816406 262.953125 71.21875 262.953125 70.5 L 266.570312 70.5 L 266.570312 71.628906 C 266.570312 72.6875 266.4375 73.554688 266.167969 74.234375 C 265.898438 74.914062 265.550781 75.445312 265.101562 75.832031 C 264.660156 76.222656 264.152344 76.484375 263.582031 76.621094 C 263.011719 76.753906 262.421875 76.824219 261.824219 76.824219 C 260.773438 76.824219 259.925781 76.683594 259.257812 76.421875 C 258.585938 76.152344 258.066406 75.703125 257.6875 75.074219 C 257.308594 74.445312 257.058594 73.636719 256.917969 72.636719 C 256.777344 71.636719 256.707031 70.4375 256.707031 69.019531 C 256.707031 67.582031 256.789062 66.351562 256.957031 65.355469 C 257.128906 64.355469 257.40625 63.535156 257.808594 62.917969 C 258.207031 62.296875 258.738281 61.847656 259.394531 61.566406 C 260.054688 61.289062 260.863281 61.15625 261.824219 61.15625 C 262.664062 61.15625 263.382812 61.269531 263.972656 61.496094 C 264.5625 61.726562 265.039062 62.046875 265.410156 62.464844 C 265.78125 62.886719 266.050781 63.386719 266.210938 63.976562 C 266.378906 64.566406 266.460938 65.222656 266.460938 65.953125 L 266.460938 66.902344 L 262.84375 66.902344 L 262.84375 66.054688 C 262.851562 65.195312 262.773438 64.605469 262.613281 64.292969 "/>
<path style=" stroke:none;fill-rule:nonzero;fill:rgb(59.607843%,8.627451%,22.352941%);fill-opacity:1;" d="M 271.644531 61.457031 L 271.644531 67.011719 L 273.933594 67.011719 L 273.933594 61.457031 L 277.667969 61.457031 L 277.667969 76.601562 L 273.933594 76.601562 L 273.933594 70.359375 L 271.644531 70.359375 L 271.644531 76.601562 L 267.917969 76.601562 L 267.917969 61.457031 Z M 271.644531 61.457031 "/>
<path style=" stroke:none;fill-rule:nonzero;fill:rgb(59.607843%,8.627451%,22.352941%);fill-opacity:1;" d="M 287.929688 61.457031 L 287.929688 64.683594 L 283.171875 64.683594 L 283.171875 67.273438 L 287.628906 67.273438 L 287.628906 70.367188 L 283.171875 70.367188 L 283.171875 73.375 L 288.109375 73.375 L 288.109375 76.601562 L 279.4375 76.601562 L 279.4375 61.457031 Z M 286.359375 57.300781 L 284.429688 60.398438 L 282.105469 60.398438 L 282.984375 57.300781 Z M 286.359375 57.300781 "/>
<path style=" stroke:none;fill-rule:nonzero;fill:rgb(59.607843%,8.627451%,22.352941%);fill-opacity:1;" d="M 295.0625 65.464844 C 295.0625 65.015625 294.972656 64.625 294.800781 64.304688 C 294.632812 63.984375 294.363281 63.824219 294.003906 63.824219 C 293.601562 63.824219 293.304688 63.964844 293.125 64.234375 C 292.933594 64.515625 292.84375 64.8125 292.84375 65.152344 C 292.84375 65.652344 292.992188 66.042969 293.292969 66.332031 C 293.59375 66.621094 293.972656 66.871094 294.433594 67.082031 C 294.890625 67.292969 295.371094 67.511719 295.898438 67.730469 C 296.417969 67.953125 296.910156 68.242188 297.367188 68.589844 C 297.828125 68.941406 298.199219 69.410156 298.507812 69.980469 C 298.808594 70.546875 298.957031 71.296875 298.957031 72.21875 C 298.957031 73.824219 298.519531 74.996094 297.648438 75.722656 C 296.78125 76.453125 295.519531 76.8125 293.871094 76.8125 C 293.09375 76.8125 292.414062 76.742188 291.8125 76.613281 C 291.214844 76.484375 290.714844 76.242188 290.304688 75.914062 C 289.894531 75.582031 289.585938 75.144531 289.375 74.605469 C 289.167969 74.066406 289.058594 73.40625 289.058594 72.605469 L 289.058594 72.097656 L 292.671875 72.097656 L 292.671875 72.457031 C 292.671875 73.105469 292.785156 73.566406 293.011719 73.824219 C 293.242188 74.085938 293.53125 74.214844 293.890625 74.214844 C 294.28125 74.214844 294.582031 74.074219 294.78125 73.785156 C 294.992188 73.503906 295.089844 73.15625 295.089844 72.746094 C 295.089844 72.246094 294.953125 71.855469 294.660156 71.566406 C 294.371094 71.277344 294.011719 71.027344 293.582031 70.828125 C 293.144531 70.628906 292.671875 70.417969 292.164062 70.199219 C 291.65625 69.988281 291.183594 69.710938 290.746094 69.371094 C 290.304688 69.03125 289.945312 68.582031 289.667969 68.03125 C 289.375 67.480469 289.238281 66.761719 289.238281 65.863281 C 289.238281 64.324219 289.625 63.144531 290.40625 62.347656 C 291.183594 61.539062 292.363281 61.136719 293.941406 61.136719 C 295.570312 61.136719 296.757812 61.507812 297.488281 62.246094 C 298.21875 62.984375 298.578125 64.175781 298.578125 65.804688 L 295.082031 65.804688 L 295.082031 65.464844 Z M 295.0625 65.464844 "/>
<path style=" stroke:none;fill-rule:nonzero;fill:rgb(59.607843%,8.627451%,22.352941%);fill-opacity:1;" d="M 310.9375 61.457031 C 311.644531 61.457031 312.265625 61.578125 312.785156 61.816406 C 313.304688 62.058594 313.734375 62.386719 314.082031 62.804688 C 314.421875 63.226562 314.671875 63.714844 314.832031 64.285156 C 314.992188 64.855469 315.070312 65.464844 315.070312 66.132812 C 315.070312 67.703125 314.671875 68.878906 313.871094 69.660156 C 313.074219 70.449219 311.90625 70.839844 310.367188 70.839844 L 309.058594 70.839844 L 309.058594 76.601562 L 305.320312 76.601562 L 305.320312 61.457031 Z M 309.765625 67.992188 C 310.238281 67.992188 310.597656 67.839844 310.847656 67.542969 C 311.09375 67.242188 311.214844 66.78125 311.214844 66.144531 C 311.214844 64.914062 310.734375 64.292969 309.765625 64.292969 L 309.066406 64.292969 L 309.066406 67.980469 L 309.765625 67.980469 Z M 309.765625 67.992188 "/>
<path style=" stroke:none;fill-rule:nonzero;fill:rgb(59.607843%,8.627451%,22.352941%);fill-opacity:1;" d="M 319.828125 72.375 C 319.828125 73.117188 319.925781 73.605469 320.125 73.855469 C 320.328125 74.105469 320.605469 74.226562 320.945312 74.226562 C 321.296875 74.226562 321.566406 74.105469 321.765625 73.855469 C 321.964844 73.605469 322.066406 73.117188 322.066406 72.375 L 322.066406 61.457031 L 325.800781 61.457031 L 325.800781 71.378906 C 325.800781 72.4375 325.691406 73.324219 325.480469 74.023438 C 325.273438 74.734375 324.953125 75.292969 324.550781 75.722656 C 324.144531 76.152344 323.644531 76.433594 323.035156 76.59375 C 322.433594 76.753906 321.734375 76.824219 320.945312 76.824219 C 320.167969 76.824219 319.476562 76.742188 318.867188 76.59375 C 318.257812 76.433594 317.75 76.144531 317.339844 75.722656 C 316.929688 75.304688 316.621094 74.734375 316.410156 74.023438 C 316.199219 73.316406 316.089844 72.4375 316.089844 71.378906 L 316.089844 61.457031 L 319.828125 61.457031 Z M 319.828125 72.375 "/>
<path style=" stroke:none;fill-rule:nonzero;fill:rgb(59.607843%,8.627451%,22.352941%);fill-opacity:1;" d="M 333.183594 61.457031 C 334.523438 61.457031 335.511719 61.796875 336.140625 62.488281 C 336.78125 63.175781 337.089844 64.085938 337.089844 65.234375 C 337.089844 65.632812 337.050781 66.011719 336.960938 66.394531 C 336.871094 66.773438 336.742188 67.113281 336.5625 67.410156 C 336.378906 67.710938 336.152344 67.972656 335.871094 68.179688 C 335.589844 68.390625 335.25 68.539062 334.84375 68.628906 L 334.84375 68.671875 C 335.3125 68.710938 335.710938 68.839844 336.050781 69.058594 C 336.378906 69.28125 336.660156 69.550781 336.871094 69.878906 C 337.078125 70.199219 337.238281 70.558594 337.339844 70.949219 C 337.441406 71.335938 337.488281 71.726562 337.488281 72.128906 C 337.488281 72.777344 337.410156 73.375 337.25 73.925781 C 337.089844 74.476562 336.839844 74.953125 336.5 75.34375 C 336.160156 75.742188 335.710938 76.042969 335.160156 76.261719 C 334.613281 76.484375 333.953125 76.59375 333.175781 76.59375 L 327.53125 76.59375 L 327.53125 61.457031 Z M 332.175781 67.390625 C 332.566406 67.390625 332.855469 67.242188 333.054688 66.933594 C 333.253906 66.632812 333.355469 66.273438 333.355469 65.863281 C 333.355469 65.445312 333.253906 65.074219 333.054688 64.765625 C 332.855469 64.453125 332.554688 64.292969 332.175781 64.292969 L 331.277344 64.292969 L 331.277344 67.390625 Z M 332.316406 73.753906 C 332.664062 73.753906 332.972656 73.605469 333.234375 73.296875 C 333.503906 72.996094 333.632812 72.527344 333.632812 71.886719 C 333.632812 71.296875 333.503906 70.839844 333.234375 70.527344 C 332.964844 70.21875 332.65625 70.058594 332.316406 70.058594 L 331.265625 70.058594 L 331.265625 73.746094 L 332.316406 73.746094 Z M 332.316406 73.753906 "/>
<path style=" stroke:none;fill-rule:nonzero;fill:rgb(59.607843%,8.627451%,22.352941%);fill-opacity:1;" d="M 342.675781 61.457031 L 342.675781 73.375 L 347.269531 73.375 L 347.269531 76.601562 L 338.9375 76.601562 L 338.9375 61.457031 Z M 342.675781 61.457031 "/>
<path style=" stroke:none;fill-rule:nonzero;fill:rgb(59.607843%,8.627451%,22.352941%);fill-opacity:1;" d="M 348.097656 61.457031 L 351.835938 61.457031 L 351.835938 76.601562 L 348.097656 76.601562 Z M 348.097656 61.457031 "/>
<path style=" stroke:none;fill-rule:nonzero;fill:rgb(59.607843%,8.627451%,22.352941%);fill-opacity:1;" d="M 358.9375 64.292969 C 358.777344 63.984375 358.519531 63.824219 358.160156 63.824219 C 357.878906 63.824219 357.648438 63.90625 357.488281 64.054688 C 357.320312 64.214844 357.191406 64.484375 357.109375 64.882812 C 357.019531 65.285156 356.96875 65.8125 356.941406 66.484375 C 356.910156 67.152344 356.902344 68 356.902344 69.019531 C 356.902344 70.039062 356.910156 70.886719 356.941406 71.558594 C 356.96875 72.226562 357.019531 72.765625 357.109375 73.15625 C 357.199219 73.554688 357.320312 73.824219 357.488281 73.984375 C 357.660156 74.144531 357.878906 74.214844 358.160156 74.214844 C 358.390625 74.214844 358.578125 74.15625 358.71875 74.035156 C 358.867188 73.914062 358.980469 73.714844 359.058594 73.425781 C 359.136719 73.144531 359.199219 72.765625 359.226562 72.285156 C 359.257812 71.816406 359.277344 71.21875 359.277344 70.5 L 362.894531 70.5 L 362.894531 71.628906 C 362.894531 72.6875 362.765625 73.554688 362.496094 74.234375 C 362.226562 74.914062 361.875 75.445312 361.425781 75.832031 C 360.988281 76.222656 360.476562 76.484375 359.90625 76.621094 C 359.339844 76.753906 358.75 76.824219 358.148438 76.824219 C 357.101562 76.824219 356.25 76.683594 355.582031 76.421875 C 354.914062 76.152344 354.394531 75.703125 354.011719 75.074219 C 353.632812 74.445312 353.382812 73.636719 353.246094 72.636719 C 353.105469 71.636719 353.035156 70.4375 353.035156 69.019531 C 353.035156 67.582031 353.113281 66.351562 353.285156 65.355469 C 353.453125 64.355469 353.734375 63.535156 354.132812 62.917969 C 354.53125 62.296875 355.0625 61.847656 355.722656 61.566406 C 356.382812 61.289062 357.191406 61.15625 358.148438 61.15625 C 358.988281 61.15625 359.707031 61.269531 360.296875 61.496094 C 360.886719 61.726562 361.367188 62.046875 361.734375 62.464844 C 362.105469 62.886719 362.375 63.386719 362.535156 63.976562 C 362.703125 64.566406 362.785156 65.222656 362.785156 65.953125 L 362.785156 66.902344 L 359.167969 66.902344 L 359.167969 66.054688 C 359.179688 65.195312 359.097656 64.605469 358.9375 64.292969 "/>
<path style=" stroke:none;fill-rule:nonzero;fill:rgb(59.607843%,8.627451%,22.352941%);fill-opacity:1;" d="M 369.816406 65.464844 C 369.816406 65.015625 369.726562 64.625 369.558594 64.304688 C 369.386719 63.984375 369.117188 63.824219 368.757812 63.824219 C 368.359375 63.824219 368.058594 63.964844 367.878906 64.234375 C 367.699219 64.503906 367.601562 64.8125 367.601562 65.152344 C 367.601562 65.652344 367.75 66.042969 368.050781 66.332031 C 368.347656 66.621094 368.730469 66.871094 369.1875 67.082031 C 369.648438 67.292969 370.128906 67.511719 370.65625 67.730469 C 371.175781 67.953125 371.667969 68.242188 372.125 68.589844 C 372.585938 68.941406 372.953125 69.410156 373.265625 69.980469 C 373.5625 70.546875 373.714844 71.296875 373.714844 72.21875 C 373.714844 73.824219 373.273438 74.996094 372.40625 75.722656 C 371.535156 76.453125 370.277344 76.8125 368.628906 76.8125 C 367.851562 76.8125 367.171875 76.742188 366.570312 76.613281 C 365.972656 76.484375 365.472656 76.242188 365.0625 75.914062 C 364.652344 75.582031 364.34375 75.144531 364.132812 74.605469 C 363.921875 74.066406 363.8125 73.40625 363.8125 72.605469 L 363.8125 72.097656 L 367.429688 72.097656 L 367.429688 72.457031 C 367.429688 73.105469 367.539062 73.566406 367.769531 73.824219 C 368 74.085938 368.289062 74.214844 368.648438 74.214844 C 369.039062 74.214844 369.339844 74.074219 369.539062 73.785156 C 369.75 73.503906 369.847656 73.15625 369.847656 72.746094 C 369.847656 72.246094 369.707031 71.855469 369.417969 71.566406 C 369.128906 71.277344 368.769531 71.027344 368.328125 70.828125 C 367.898438 70.628906 367.421875 70.417969 366.910156 70.199219 C 366.402344 69.988281 365.933594 69.710938 365.492188 69.371094 C 365.050781 69.03125 364.691406 68.582031 364.402344 68.03125 C 364.113281 67.480469 363.972656 66.761719 363.972656 65.863281 C 363.972656 64.324219 364.363281 63.144531 365.144531 62.347656 C 365.921875 61.539062 367.101562 61.136719 368.679688 61.136719 C 370.308594 61.136719 371.496094 61.507812 372.226562 62.246094 C 372.953125 62.984375 373.324219 64.175781 373.324219 65.804688 L 369.828125 65.804688 L 369.828125 65.464844 Z M 369.816406 65.464844 "/>
<path style=" stroke:none;fill-rule:nonzero;fill:rgb(11.372549%,14.509804%,27.45098%);fill-opacity:1;" d="M 105.867188 0.648438 L 105.867188 76.773438 L 6.972656 74.414062 L 3.40625 16.761719 L 51.390625 18.480469 L 60.3125 0.648438 Z M 105.867188 0.648438 "/>
<path style=" stroke:none;fill-rule:nonzero;fill:rgb(59.607843%,8.627451%,22.352941%);fill-opacity:1;" d="M 6.972656 73.996094 L 6.972656 10.039062 L 100.839844 10.039062 L 95.625 74.195312 Z M 6.972656 73.996094 "/>
<path style=" stroke:none;fill-rule:nonzero;fill:rgb(14.117647%,20%,40%);fill-opacity:1;" d="M 11.796875 74.234375 L 11.796875 14.863281 L 99.503906 14.863281 L 97.246094 74.414062 Z M 11.796875 74.234375 "/>
<path style=" stroke:none;fill-rule:nonzero;fill:rgb(65.490196%,78.039216%,19.607843%);fill-opacity:1;" d="M 101 4.535156 L 105.867188 76.773438 L 5.835938 76.261719 L 0 19.679688 L 51.71875 19.9375 L 65.496094 4.535156 Z M 101 4.535156 "/>
</g>
</svg>
